<?xml version="1.0" encoding="UTF-8"?><svg id="Layer_1" xmlns="http://www.w3.org/2000/svg" viewBox="0 0 512 512">
<g transform="scale(0.96) translate(0,167)">
<defs><style>.cls-1{fill:#fff;}.cls-2{fill:#dd1f26;}</style></defs><path class="cls-1" d="M30.96,109.62c3.24,0,5.89-.99,7.95-2.97,2.06-1.98,3.74-5.12,5.02-9.42h17.66c-2.79,8.26-6.81,14.39-12.05,18.38-5.25,3.99-12.03,5.98-20.34,5.98s-14.29-2.25-18.75-6.74c-4.47-4.49-6.7-10.59-6.7-18.29,0-3.52,.36-6.96,1.09-10.34,.73-3.38,1.95-6.75,3.68-10.13,1.73-3.38,3.91-6.32,6.53-8.83,2.62-2.51,6.01-4.55,10.17-6.11,4.16-1.56,8.83-2.34,14.02-2.34,7.37,0,13.44,1.88,18.21,5.65,4.77,3.77,7.16,8.97,7.16,15.61v.84h-17.41c0-3.46-.81-6.01-2.43-7.66-1.62-1.65-3.8-2.47-6.53-2.47s-5.3,.87-7.53,2.6c-2.23,1.73-3.96,3.95-5.19,6.66-1.23,2.71-2.15,5.53-2.76,8.46-.61,2.93-.92,5.79-.92,8.58,0,4.19,.84,7.33,2.51,9.42,1.67,2.09,3.88,3.14,6.61,3.14Z"/><path class="cls-1" d="M92.99,109.62c3.24,0,5.89-.99,7.95-2.97,2.06-1.98,3.74-5.12,5.02-9.42h17.66c-2.79,8.26-6.81,14.39-12.05,18.38-5.25,3.99-12.03,5.98-20.34,5.98s-14.29-2.25-18.75-6.74c-4.47-4.49-6.7-10.59-6.7-18.29,0-3.52,.36-6.96,1.09-10.34,.73-3.38,1.95-6.75,3.68-10.13,1.73-3.38,3.91-6.32,6.53-8.83,2.62-2.51,6.01-4.55,10.17-6.11,4.16-1.56,8.83-2.34,14.02-2.34,7.37,0,13.44,1.88,18.21,5.65,4.77,3.77,7.16,8.97,7.16,15.61v.84h-17.41c0-3.46-.81-6.01-2.43-7.66-1.62-1.65-3.8-2.47-6.53-2.47s-5.3,.87-7.53,2.6c-2.23,1.73-3.96,3.95-5.19,6.66-1.23,2.71-2.15,5.53-2.76,8.46-.61,2.93-.92,5.79-.92,8.58,0,4.19,.84,7.33,2.51,9.42,1.67,2.09,3.88,3.14,6.61,3.14Z"/><path class="cls-1" d="M186.08,60.06l-2.68,12.64h-17.66l-10.05,47.63h-17.5l10.05-47.63h-17.25l2.68-12.64h52.4Z"/><path class="cls-1" d="M227.86,60.06h17.58l-32.48,60.27h-19.42l-7.03-60.27h17.58l2.09,45.37,21.68-45.37Z"/><path class="cls-2" d="M317.01,60.06l-2.68,12.64h-17.66l-10.05,47.63h-17.5l10.05-47.63h-17.24l2.68-12.64h52.4Z"/><path class="cls-2" d="M319.27,120.33h-16.24l9.21-43.53h13.9v6.7c3.35-5.3,7.4-7.95,12.14-7.95,1.84,0,3.63,.22,5.36,.67l-3.1,14.4c-2.18-.67-4.21-1-6.11-1-2.73,0-5.11,1.1-7.11,3.31-2.01,2.21-3.46,5.48-4.35,9.84l-3.68,17.58Z"/><path class="cls-2" d="M360.04,90.36h-16.16c4.19-9.88,12.22-14.82,24.11-14.82,5.8,0,10.3,1.21,13.48,3.64,3.18,2.43,4.77,5.79,4.77,10.09,0,1.56-.14,2.93-.42,4.1l-5.69,26.96h-12.56l-1-4.86c-1.56,1.73-3.67,3.18-6.32,4.35-2.65,1.17-5.54,1.76-8.66,1.76-4.02,0-7.14-.96-9.38-2.89-2.23-1.93-3.35-4.59-3.35-7.99,0-4.52,1.63-8.09,4.9-10.72,3.26-2.62,8.8-4.58,16.62-5.86l9.38-1.51,.25-1.17c.11-.45,.17-.98,.17-1.59,0-2.51-1.4-3.77-4.19-3.77-2.96,0-4.94,1.42-5.94,4.27Zm-1,20.68c1.84,0,3.53-.59,5.07-1.76,1.53-1.17,2.55-2.73,3.06-4.69l.84-3.68c-5.3,.95-8.75,1.86-10.34,2.72-1.59,.87-2.39,2.28-2.39,4.23,0,2.12,1.26,3.18,3.77,3.18Z"/><polygon class="cls-2" points="403.82 120.33 387.67 120.33 396.87 76.8 413.03 76.8 403.82 120.33"/><polygon class="cls-2" points="414.45 72.28 397.38 72.28 399.97 60.06 417.13 60.06 414.45 72.28"/><path class="cls-2" d="M447.3,22.76l-22.29,116.41h-16.24l22.87-119.41c.72-3.76,4.01-6.48,7.83-6.48h0c5.01,0,8.77,4.56,7.83,9.48Z"/><path class="cls-2" d="M469.39,106.52h16.41c-2.01,4.58-5.08,8.23-9.21,10.97-4.13,2.74-9.29,4.1-15.49,4.1s-11.36-1.74-15.15-5.23c-3.8-3.49-5.69-8.11-5.69-13.86,0-3.35,.56-6.58,1.67-9.71,1.12-3.12,2.73-5.99,4.85-8.58,2.12-2.59,4.94-4.69,8.46-6.28,3.52-1.59,7.48-2.39,11.89-2.39,6.25,0,11.27,1.69,15.07,5.06,3.79,3.38,5.69,8.13,5.69,14.27,0,2.34-.28,4.74-.84,7.2h-30.64c-.06,.34-.08,.84-.08,1.51,0,4.63,2.23,6.95,6.7,6.95,3.18,0,5.3-1.34,6.36-4.02Zm-2.85-20.85c-3.74,0-6.5,2.62-8.29,7.87h13.98c.11-.5,.17-1.2,.17-2.09,0-3.85-1.95-5.78-5.86-5.78Z"/><path class="cls-2" d="M506.79,120.33h-16.24l9.21-43.53h13.9v6.7c3.35-5.3,7.4-7.95,12.14-7.95,1.84,0,3.63,.22,5.36,.67l-3.1,14.4c-2.18-.67-4.21-1-6.11-1-2.73,0-5.11,1.1-7.11,3.31-2.01,2.21-3.46,5.48-4.35,9.84l-3.68,17.58Z"/><path class="cls-2" d="M3.76,133.95H39.88c-9.95,2.87-17.61,11.21-19.52,21.55H0l3.76-21.55Z"/><path class="cls-2" d="M55.16,133.91l54.11-.08c-10.14,2.77-17.99,11.2-19.92,21.67h-14.55c-1.91-10.37-9.62-18.74-19.63-21.58Z"/><path class="cls-2" d="M123.77,133.8l302.34-.34-1.4,7.36h-132.17l-35.01,14.67h-113.75c-1.94-10.51-9.83-18.94-20.02-21.69Z"/><polygon class="cls-1" points="521.34 133.3 521.34 140.82 430.89 140.82 432.24 133.46 521.34 133.3"/><path class="cls-2" d="M47.57,149.79c-5.92,0-10.74,4.82-10.74,10.75s4.82,10.74,10.74,10.74,10.74-4.82,10.74-10.74-4.82-10.75-10.74-10.75Zm0,17.25c-3.59,0-6.5-2.91-6.5-6.5s2.91-6.51,6.5-6.51,6.5,2.92,6.5,6.51-2.91,6.5-6.5,6.5Z"/><path class="cls-2" d="M116.57,149.79c-5.92,0-10.74,4.82-10.74,10.75s4.82,10.74,10.74,10.74,10.74-4.82,10.74-10.74-4.82-10.75-10.74-10.75Zm0,17.25c-3.59,0-6.5-2.91-6.5-6.5s2.91-6.51,6.5-6.51,6.5,2.92,6.5,6.51-2.91,6.5-6.5,6.5Z"/><path class="cls-1" d="M47.57,135.27c-13.96,0-25.26,11.32-25.26,25.27s11.31,25.26,25.26,25.26,25.26-11.31,25.26-25.26-11.31-25.27-25.26-25.27Zm0,38.43c-7.26,0-13.16-5.91-13.16-13.16s5.89-13.17,13.16-13.17,13.16,5.91,13.16,13.17-5.89,13.16-13.16,13.16Z"/><path class="cls-1" d="M116.57,135.27c-13.96,0-25.26,11.32-25.26,25.27s11.31,25.26,25.26,25.26,25.26-11.31,25.26-25.26-11.31-25.27-25.26-25.27Zm0,38.43c-7.26,0-13.16-5.91-13.16-13.16s5.89-13.17,13.16-13.17,13.16,5.91,13.16,13.17-5.89,13.16-13.16,13.16Z"/><polygon class="cls-1" points="519.52 153.09 295.46 153.09 295.46 149.46 516.49 149.46 519.52 133.31 523.15 133.31 519.52 153.09"/><path class="cls-2" d="M421.73,12.02l-30.31,7.21s1.92,6.96-3.08,13.52l12.46-4.03s.3,3.39,4.73,2.82l.79,6.05s.23,3.22,5.14,4.54l23.04,8.45,.68-6.51-22.2-7.8-1.17-7.79s2.19-.53,2.12-4.61c0,0,8.76-1.5,7.8-11.84Z"/><path class="cls-1" d="M423.09,9.86c-.01-.1-.01-.19-.02-.29-.51-5.89-5.88-10.17-11.77-9.5l-34.51,3.89c-13.47,1.86-11.1,16.8-11.1,16.8l2.58-.76c-.21-11.8,6.35-12.61,6.35-12.61-3.28,1.88-5.6,6.16-5.14,12.56,.75,5.65,4.42,16.1,13.71,13.87,8.98-3.53,5.91-16.15,5.91-16.15l33.99-7.81Zm-43.13,18.47c-2.83,.47-5.66-2.35-6.33-6.31-.67-3.95,1.09-7.54,3.91-8.03,2.83-.47,5.66,2.35,6.33,6.31s-1.09,7.55-3.91,8.03Z"/>
</g>
</svg>
